<svg xmlns="http://www.w3.org/2000/svg" xmlns:xlink="http://www.w3.org/1999/xlink" width="1040" height="711.3"><rect width="1040" height="711.3" rx="5" ry="5" class="a"/><svg y="0%" x="0%"><circle cx="20" cy="20" r="6" fill="#ff5f58"/><circle cx="40" cy="20" r="6" fill="#ffbd2e"/><circle cx="60" cy="20" r="6" fill="#18c132"/></svg><svg height="651.3" viewBox="0 0 100 65.13" width="1000" x="15" xmlns="http://www.w3.org/2000/svg" xmlns:xlink="http://www.w3.org/1999/xlink" y="50"><style>@keyframes r{0%{transform:translateX(0)}1.6%{transform:translateX(-100px)}7.8%{transform:translateX(-200px)}14.1%{transform:translateX(-300px)}20.3%{transform:translateX(-400px)}26.6%{transform:translateX(-500px)}32.8%{transform:translateX(-600px)}45.3%{transform:translateX(-700px)}53.1%{transform:translateX(-800px)}to{transform:translateX(-900px)}}.a{fill:#282d35}.f{fill:#1c1c1c}.g,.h,.i,.j,.l,.m{fill:#b9c0cb;white-space:pre}.h,.i,.j,.l,.m{fill:#ffb000}.i,.j,.l,.m{fill:#64a0ff}.j,.l,.m{fill:#787878}.l,.m{fill:#50c878}.m{fill:#dcdcdc}.n{fill:#282828}.o,.p{fill:#b4b4b4;white-space:pre}.p{fill:#ffb000;font-weight:700}</style><g font-family="Monaco,Consolas,Menlo,'Bitstream Vera Sans Mono','Powerline Symbols',monospace" font-size="1.67"><defs><symbol id="1"><path class="f" d="M0 0h100v2.171H0z"/><text y="1.67" class="g"></text></symbol><symbol id="2"><path class="f" d="M0 0h2v2.171H0z"/><text y="1.67" class="g"></text><path class="f" d="M2.004 0h36v2.171h-36z"/><text x="2.004" y="1.67" class="h">┌ Counter ─────────────────────────┐</text><path class="f" d="M38.076 0h3v2.171h-3z"/><text x="38.076" y="1.67" class="g"></text><path class="f" d="M41.082 0h55v2.171h-55z"/><text x="41.082" y="1.67" class="i">┌ Widget Library ─────────────────────────────────────┐</text><path class="f" d="M96.192 0h4v2.171h-4z"/><text x="96.192" y="1.67" class="g"></text></symbol><symbol id="3"><path class="f" d="M0 0h2v2.171H0z"/><text y="1.67" class="g"></text><path class="f" d="M2.004 0h36v2.171h-36z"/><text x="2.004" y="1.67" class="h">│ │</text><path class="f" d="M38.076 0h3v2.171h-3z"/><text x="38.076" y="1.67" class="g"></text><path class="f" d="M41.082 0h55v2.171h-55z"/><text x="41.082" y="1.67" class="i">│ │</text><path class="f" d="M96.192 0h4v2.171h-4z"/><text x="96.192" y="1.67" class="g"></text></symbol><symbol id="4"><path class="f" d="M0 0h2v2.171H0z"/><text y="1.67" class="g"></text><path class="f" d="M2.004 0h36v2.171h-36z"/><text x="2.004" y="1.67" class="h">│ │</text><path class="f" d="M38.076 0h3v2.171h-3z"/><text x="38.076" y="1.67" class="g"></text><path class="f" d="M41.082 0h2v2.171h-2z"/><text x="41.082" y="1.67" class="i">│</text><path class="f" d="M43.086 0h33v2.171h-33z"/><text x="43.086" y="1.67" class="j">Table BarChart Chart</text><path class="f" d="M76.152 0h20v2.171h-20z"/><text x="76.152" y="1.67" class="i">│</text><path class="f" d="M96.192 0h4v2.171h-4z"/><text x="96.192" y="1.67" class="g"></text></symbol><symbol id="5"><path class="f" d="M0 0h2v2.171H0z"/><text y="1.67" class="g"></text><path class="f" d="M2.004 0h2v2.171h-2z"/><text x="2.004" y="1.67" class="h">│</text><path class="f" d="M4.008 0h22v2.171h-22z"/><text x="4.008" y="1.67" class="j">Press + to increment</text><path class="f" d="M26.052 0h12v2.171h-12z"/><text x="26.052" y="1.67" class="h">│</text><path class="f" d="M38.076 0h3v2.171h-3z"/><text x="38.076" y="1.67" class="g"></text><path class="f" d="M41.082 0h2v2.171h-2z"/><text x="41.082" y="1.67" class="i">│</text><path class="f" d="M43.086 0h32v2.171h-32z"/><text x="43.086" y="1.67" class="j">Sparkline Gauge Tabs</text><path class="f" d="M75.15 0h21v2.171h-21z"/><text x="75.15" y="1.67" class="i">│</text><path class="f" d="M96.192 0h4v2.171h-4z"/><text x="96.192" y="1.67" class="g"></text></symbol><symbol id="6"><path class="f" d="M0 0h2v2.171H0z"/><text y="1.67" class="g"></text><path class="f" d="M2.004 0h2v2.171h-2z"/><text x="2.004" y="1.67" class="h">│</text><path class="f" d="M4.008 0h22v2.171h-22z"/><text x="4.008" y="1.67" class="j">Press - to decrement</text><path class="f" d="M26.052 0h12v2.171h-12z"/><text x="26.052" y="1.67" class="h">│</text><path class="f" d="M38.076 0h3v2.171h-3z"/><text x="38.076" y="1.67" class="g"></text><path class="f" d="M41.082 0h2v2.171h-2z"/><text x="41.082" y="1.67" class="i">│</text><path class="f" d="M43.086 0h34v2.171h-34z"/><text x="43.086" y="1.67" class="j">TextInput TextArea Button</text><path class="f" d="M77.154 0h19v2.171h-19z"/><text x="77.154" y="1.67" class="i">│</text><path class="f" d="M96.192 0h4v2.171h-4z"/><text x="96.192" y="1.67" class="g"></text></symbol><symbol id="7"><path class="f" d="M0 0h2v2.171H0z"/><text y="1.67" class="g"></text><path class="f" d="M2.004 0h2v2.171h-2z"/><text x="2.004" y="1.67" class="h">│</text><path class="f" d="M4.008 0h17v2.171h-17z"/><text x="4.008" y="1.67" class="j">Press q to quit</text><path class="f" d="M21.042 0h17v2.171h-17z"/><text x="21.042" y="1.67" class="h">│</text><path class="f" d="M38.076 0h3v2.171h-3z"/><text x="38.076" y="1.67" class="g"></text><path class="f" d="M41.082 0h2v2.171h-2z"/><text x="41.082" y="1.67" class="i">│</text><path class="f" d="M43.086 0h32v2.171h-32z"/><text x="43.086" y="1.67" class="j">Checkbox Dropdown Form</text><path class="f" d="M75.15 0h21v2.171h-21z"/><text x="75.15" y="1.67" class="i">│</text><path class="f" d="M96.192 0h4v2.171h-4z"/><text x="96.192" y="1.67" class="g"></text></symbol><symbol id="8"><path class="f" d="M0 0h2v2.171H0z"/><text y="1.67" class="g"></text><path class="f" d="M2.004 0h36v2.171h-36z"/><text x="2.004" y="1.67" class="h">│ │</text><path class="f" d="M38.076 0h3v2.171h-3z"/><text x="38.076" y="1.67" class="g"></text><path class="f" d="M41.082 0h2v2.171h-2z"/><text x="41.082" y="1.67" class="i">│</text><path class="f" d="M43.086 0h36v2.171h-36z"/><text x="43.086" y="1.67" class="j">Modal TreeView Calendar</text><path class="f" d="M79.158 0h17v2.171h-17z"/><text x="79.158" y="1.67" class="i">│</text><path class="f" d="M96.192 0h4v2.171h-4z"/><text x="96.192" y="1.67" class="g"></text></symbol><symbol id="9"><path class="f" d="M0 0h2v2.171H0z"/><text y="1.67" class="g"></text><path class="f" d="M2.004 0h36v2.171h-36z"/><text x="2.004" y="1.67" class="h">│ │</text><path class="f" d="M38.076 0h3v2.171h-3z"/><text x="38.076" y="1.67" class="g"></text><path class="f" d="M41.082 0h2v2.171h-2z"/><text x="41.082" y="1.67" class="i">│</text><path class="f" d="M43.086 0h34v2.171h-34z"/><text x="43.086" y="1.67" class="j">StatusBar CodeEditor Canvas</text><path class="f" d="M77.154 0h19v2.171h-19z"/><text x="77.154" y="1.67" class="i">│</text><path class="f" d="M96.192 0h4v2.171h-4z"/><text x="96.192" y="1.67" class="g"></text></symbol><symbol id="10"><path class="f" d="M0 0h2v2.171H0z"/><text y="1.67" class="g"></text><path class="f" d="M2.004 0h36v2.171h-36z"/><text x="2.004" y="1.67" class="h">└──────────────────────────────────┘</text><path class="f" d="M38.076 0h3v2.171h-3z"/><text x="38.076" y="1.67" class="g"></text><path class="f" d="M41.082 0h55v2.171h-55z"/><text x="41.082" y="1.67" class="i">│ │</text><path class="f" d="M96.192 0h4v2.171h-4z"/><text x="96.192" y="1.67" class="g"></text></symbol><symbol id="11"><path class="f" d="M0 0h41v2.171H0z"/><text y="1.67" class="g"></text><path class="f" d="M41.082 0h2v2.171h-2z"/><text x="41.082" y="1.67" class="i">│</text><path class="f" d="M43.086 0h16v2.171h-16z"/><text x="43.086" y="1.67" style="white-space:pre" fill="#64b464">35 widgets total</text><path class="f" d="M59.118 0h37v2.171h-37z"/><text x="59.118" y="1.67" class="i">│</text><path class="f" d="M96.192 0h4v2.171h-4z"/><text x="96.192" y="1.67" class="g"></text></symbol><symbol id="12"><path class="f" d="M0 0h2v2.171H0z"/><text y="1.67" class="g"></text><path class="f" d="M2.004 0h36v2.171h-36z"/><text x="2.004" y="1.67" class="l">┌ ET-Transport ────────────────────┐</text><path class="f" d="M38.076 0h3v2.171h-3z"/><text x="38.076" y="1.67" class="g"></text><path class="f" d="M41.082 0h55v2.171h-55z"/><text x="41.082" y="1.67" class="i">│ │</text><path class="f" d="M96.192 0h4v2.171h-4z"/><text x="96.192" y="1.67" class="g"></text></symbol><symbol id="13"><path class="f" d="M0 0h2v2.171H0z"/><text y="1.67" class="g"></text><path class="f" d="M2.004 0h36v2.171h-36z"/><text x="2.004" y="1.67" class="l">│ │</text><path class="f" d="M38.076 0h3v2.171h-3z"/><text x="38.076" y="1.67" class="g"></text><path class="f" d="M41.082 0h55v2.171h-55z"/><text x="41.082" y="1.67" class="i">│ │</text><path class="f" d="M96.192 0h4v2.171h-4z"/><text x="96.192" y="1.67" class="g"></text></symbol><symbol id="14"><path class="f" d="M0 0h2v2.171H0z"/><text y="1.67" class="g"></text><path class="f" d="M2.004 0h4v2.171h-4z"/><text x="2.004" y="1.67" class="l">│ ●</text><path class="f" d="M6.012 0h13v2.171h-13z"/><text x="6.012" y="1.67" class="m">Unix socket</text><path class="f" d="M19.038 0h9v2.171h-9z"/><text x="19.038" y="1.67" class="j">9.2µs p50</text><path class="f" d="M28.056 0h10v2.171h-10z"/><text x="28.056" y="1.67" class="l">│</text><path class="f" d="M38.076 0h3v2.171h-3z"/><text x="38.076" y="1.67" class="g"></text><path class="f" d="M41.082 0h55v2.171h-55z"/><text x="41.082" y="1.67" class="i">│ │</text><path class="f" d="M96.192 0h4v2.171h-4z"/><text x="96.192" y="1.67" class="g"></text></symbol><symbol id="15"><path class="f" d="M0 0h2v2.171H0z"/><text y="1.67" class="g"></text><path class="f" d="M2.004 0h2v2.171h-2z"/><text x="2.004" y="1.67" class="l">│</text><path class="f" d="M4.008 0h2v2.171h-2z"/><text x="4.008" y="1.67" class="i">●</text><path class="f" d="M6.012 0h13v2.171h-13z"/><text x="6.012" y="1.67" class="m">TCP+TLS</text><path class="f" d="M19.038 0h10v2.171h-10z"/><text x="19.038" y="1.67" class="j">13.3µs p50</text><path class="f" d="M29.058 0h9v2.171h-9z"/><text x="29.058" y="1.67" class="l">│</text><path class="f" d="M38.076 0h3v2.171h-3z"/><text x="38.076" y="1.67" class="g"></text><path class="f" d="M41.082 0h55v2.171h-55z"/><text x="41.082" y="1.67" class="i">│ │</text><path class="f" d="M96.192 0h4v2.171h-4z"/><text x="96.192" y="1.67" class="g"></text></symbol><symbol id="16"><path class="f" d="M0 0h2v2.171H0z"/><text y="1.67" class="g"></text><path class="f" d="M2.004 0h2v2.171h-2z"/><text x="2.004" y="1.67" class="l">│</text><path class="f" d="M4.008 0h2v2.171h-2z"/><text x="4.008" y="1.67" class="h">●</text><path class="f" d="M6.012 0h13v2.171h-13z"/><text x="6.012" y="1.67" class="m">FRANK</text><path class="f" d="M19.038 0h20v2.171h-20z"/><text x="19.038" y="1.67" class="j">0B overhead (absent)</text><path class="f" d="M39.078 0h2v2.171h-2z"/><text x="39.078" y="1.67" class="g"></text><path class="f" d="M41.082 0h55v2.171h-55z"/><text x="41.082" y="1.67" class="i">│ │</text><path class="f" d="M96.192 0h4v2.171h-4z"/><text x="96.192" y="1.67" class="g"></text></symbol><symbol id="17"><path class="f" d="M0 0h2v2.171H0z"/><text y="1.67" class="g"></text><path class="f" d="M2.004 0h36v2.171h-36z"/><text x="2.004" y="1.67" class="l">└──────────────────────────────────┘</text><path class="f" d="M38.076 0h3v2.171h-3z"/><text x="38.076" y="1.67" class="g"></text><path class="f" d="M41.082 0h55v2.171h-55z"/><text x="41.082" y="1.67" class="i">│ │</text><path class="f" d="M96.192 0h4v2.171h-4z"/><text x="96.192" y="1.67" class="g"></text></symbol><symbol id="18"><path class="f" d="M0 0h41v2.171H0z"/><text y="1.67" class="g"></text><path class="f" d="M41.082 0h55v2.171h-55z"/><text x="41.082" y="1.67" class="i">└─────────────────────────────────────────────────────┘</text><path class="f" d="M96.192 0h4v2.171h-4z"/><text x="96.192" y="1.67" class="g"></text></symbol><symbol id="19"><path class="n" d="M0 0h100v2.171H0z"/><text y="1.67" class="o">JUI v0.2.0 │ local session · unix socket · no agent attached</text></symbol><symbol id="20"><path class="f" d="M0 0h2v2.171H0z"/><text y="1.67" class="g"></text><path class="f" d="M2.004 0h2v2.171h-2z"/><text x="2.004" y="1.67" class="h">│</text><path class="f" d="M4.008 0h8v2.171h-8z"/><text x="4.008" y="1.67" class="m">Count:</text><path class="f" d="M12.024 0h5v2.171h-5z"/><text x="12.024" y="1.67" class="p">5</text><path class="f" d="M17.034 0h21v2.171h-21z"/><text x="17.034" y="1.67" class="h">│</text><path class="f" d="M38.076 0h3v2.171h-3z"/><text x="38.076" y="1.67" class="g"></text><path class="f" d="M41.082 0h2v2.171h-2z"/><text x="41.082" y="1.67" class="i">│</text><path class="f" d="M43.086 0h32v2.171h-32z"/><text x="43.086" y="1.67" class="j">Block Paragraph List</text><path class="f" d="M75.15 0h21v2.171h-21z"/><text x="75.15" y="1.67" class="i">│</text><path class="f" d="M96.192 0h4v2.171h-4z"/><text x="96.192" y="1.67" class="g"></text></symbol><symbol id="21"><path class="n" d="M0 0h100v2.171H0z"/><text y="1.67" class="o">JUI v0.2.0 │ local session · unix socket · agent: :observe</text></symbol><symbol id="22"><path class="f" d="M0 0h2v2.171H0z"/><text y="1.67" class="g"></text><path class="f" d="M2.004 0h36v2.171h-36z"/><text x="2.004" y="1.67" class="h">┌ Counter ─────────────────────────┐</text><path class="f" d="M38.076 0h3v2.171h-3z"/><text x="38.076" y="1.67" class="g"></text><path class="f" d="M41.082 0h55v2.171h-55z"/><text x="41.082" y="1.67" class="h">┌ FRANK Event Stream ─────────────────────────────────┐</text><path class="f" d="M96.192 0h4v2.171h-4z"/><text x="96.192" y="1.67" class="g"></text></symbol><symbol id="23"><path class="f" d="M0 0h2v2.171H0z"/><text y="1.67" class="g"></text><path class="f" d="M2.004 0h36v2.171h-36z"/><text x="2.004" y="1.67" class="h">│ │</text><path class="f" d="M38.076 0h3v2.171h-3z"/><text x="38.076" y="1.67" class="g"></text><path class="f" d="M41.082 0h55v2.171h-55z"/><text x="41.082" y="1.67" class="h">│ │</text><path class="f" d="M96.192 0h4v2.171h-4z"/><text x="96.192" y="1.67" class="g"></text></symbol><symbol id="24"><path class="f" d="M0 0h2v2.171H0z"/><text y="1.67" class="g"></text><path class="f" d="M2.004 0h2v2.171h-2z"/><text x="2.004" y="1.67" class="h">│</text><path class="f" d="M4.008 0h8v2.171h-8z"/><text x="4.008" y="1.67" class="m">Count:</text><path class="f" d="M12.024 0h5v2.171h-5z"/><text x="12.024" y="1.67" class="p">5</text><path class="f" d="M17.034 0h21v2.171h-21z"/><text x="17.034" y="1.67" class="h">│</text><path class="f" d="M38.076 0h3v2.171h-3z"/><text x="38.076" y="1.67" class="g"></text><path class="f" d="M41.082 0h2v2.171h-2z"/><text x="41.082" y="1.67" class="h">│</text><path class="f" d="M43.086 0h20v2.171h-20z"/><text x="43.086" y="1.67" class="j">2026-04-19T10:00:00</text><path class="f" d="M63.126 0h33v2.171h-33z"/><text x="63.126" y="1.67" class="h">│</text><path class="f" d="M96.192 0h4v2.171h-4z"/><text x="96.192" y="1.67" class="g"></text></symbol><symbol id="25"><path class="f" d="M0 0h2v2.171H0z"/><text y="1.67" class="g"></text><path class="f" d="M2.004 0h36v2.171h-36z"/><text x="2.004" y="1.67" class="h">│ │</text><path class="f" d="M38.076 0h3v2.171h-3z"/><text x="38.076" y="1.67" class="g"></text><path class="f" d="M41.082 0h2v2.171h-2z"/><text x="41.082" y="1.67" class="h">│</text><path class="f" d="M43.086 0h15v2.171h-15z"/><text x="43.086" y="1.67" class="l">session_create</text><path class="f" d="M58.116 0h38v2.171h-38z"/><text x="58.116" y="1.67" class="h">│</text><path class="f" d="M96.192 0h4v2.171h-4z"/><text x="96.192" y="1.67" class="g"></text></symbol><symbol id="26"><path class="f" d="M0 0h2v2.171H0z"/><text y="1.67" class="g"></text><path class="f" d="M2.004 0h2v2.171h-2z"/><text x="2.004" y="1.67" class="h">│</text><path class="f" d="M4.008 0h22v2.171h-22z"/><text x="4.008" y="1.67" class="j">Press + to increment</text><path class="f" d="M26.052 0h12v2.171h-12z"/><text x="26.052" y="1.67" class="h">│</text><path class="f" d="M38.076 0h3v2.171h-3z"/><text x="38.076" y="1.67" class="g"></text><path class="f" d="M41.082 0h2v2.171h-2z"/><text x="41.082" y="1.67" class="h">│</text><path class="f" d="M43.086 0h21v2.171h-21z"/><text x="43.086" y="1.67" class="j">session_id=a1b2c3d4</text><path class="f" d="M64.128 0h32v2.171h-32z"/><text x="64.128" y="1.67" class="h">│</text><path class="f" d="M96.192 0h4v2.171h-4z"/><text x="96.192" y="1.67" class="g"></text></symbol><symbol id="27"><path class="f" d="M0 0h2v2.171H0z"/><text y="1.67" class="g"></text><path class="f" d="M2.004 0h2v2.171h-2z"/><text x="2.004" y="1.67" class="h">│</text><path class="f" d="M4.008 0h22v2.171h-22z"/><text x="4.008" y="1.67" class="j">Press - to decrement</text><path class="f" d="M26.052 0h12v2.171h-12z"/><text x="26.052" y="1.67" class="h">│</text><path class="f" d="M38.076 0h3v2.171h-3z"/><text x="38.076" y="1.67" class="g"></text><path class="f" d="M41.082 0h2v2.171h-2z"/><text x="41.082" y="1.67" class="h">│</text><path class="f" d="M43.086 0h20v2.171h-20z"/><text x="43.086" y="1.67" class="j">2026-04-19T10:00:01</text><path class="f" d="M63.126 0h33v2.171h-33z"/><text x="63.126" y="1.67" class="h">│</text><path class="f" d="M96.192 0h4v2.171h-4z"/><text x="96.192" y="1.67" class="g"></text></symbol><symbol id="28"><path class="f" d="M0 0h2v2.171H0z"/><text y="1.67" class="g"></text><path class="f" d="M2.004 0h2v2.171h-2z"/><text x="2.004" y="1.67" class="h">│</text><path class="f" d="M4.008 0h17v2.171h-17z"/><text x="4.008" y="1.67" class="j">Press q to quit</text><path class="f" d="M21.042 0h17v2.171h-17z"/><text x="21.042" y="1.67" class="h">│</text><path class="f" d="M38.076 0h3v2.171h-3z"/><text x="38.076" y="1.67" class="g"></text><path class="f" d="M41.082 0h2v2.171h-2z"/><text x="41.082" y="1.67" class="h">│</text><path class="f" d="M43.086 0h15v2.171h-15z"/><text x="43.086" y="1.67" class="i">input_received</text><path class="f" d="M58.116 0h38v2.171h-38z"/><text x="58.116" y="1.67" class="h">│</text><path class="f" d="M96.192 0h4v2.171h-4z"/><text x="96.192" y="1.67" class="g"></text></symbol><symbol id="29"><path class="f" d="M0 0h2v2.171H0z"/><text y="1.67" class="g"></text><path class="f" d="M2.004 0h36v2.171h-36z"/><text x="2.004" y="1.67" class="h">│ │</text><path class="f" d="M38.076 0h3v2.171h-3z"/><text x="38.076" y="1.67" class="g"></text><path class="f" d="M41.082 0h2v2.171h-2z"/><text x="41.082" y="1.67" class="h">│</text><path class="f" d="M43.086 0h9v2.171h-9z"/><text x="43.086" y="1.67" class="j">key=&apos;+&apos;</text><path class="f" d="M52.104 0h44v2.171h-44z"/><text x="52.104" y="1.67" class="h">│</text><path class="f" d="M96.192 0h4v2.171h-4z"/><text x="96.192" y="1.67" class="g"></text></symbol><symbol id="30"><path class="f" d="M0 0h2v2.171H0z"/><text y="1.67" class="g"></text><path class="f" d="M2.004 0h36v2.171h-36z"/><text x="2.004" y="1.67" class="h">│ │</text><path class="f" d="M38.076 0h3v2.171h-3z"/><text x="38.076" y="1.67" class="g"></text><path class="f" d="M41.082 0h2v2.171h-2z"/><text x="41.082" y="1.67" class="h">│</text><path class="f" d="M43.086 0h20v2.171h-20z"/><text x="43.086" y="1.67" class="j">2026-04-19T10:00:01</text><path class="f" d="M63.126 0h33v2.171h-33z"/><text x="63.126" y="1.67" class="h">│</text><path class="f" d="M96.192 0h4v2.171h-4z"/><text x="96.192" y="1.67" class="g"></text></symbol><symbol id="31"><path class="f" d="M0 0h2v2.171H0z"/><text y="1.67" class="g"></text><path class="f" d="M2.004 0h36v2.171h-36z"/><text x="2.004" y="1.67" class="h">└──────────────────────────────────┘</text><path class="f" d="M38.076 0h3v2.171h-3z"/><text x="38.076" y="1.67" class="g"></text><path class="f" d="M41.082 0h2v2.171h-2z"/><text x="41.082" y="1.67" class="h">│</text><path class="f" d="M43.086 0h15v2.171h-15z"/><text x="43.086" y="1.67" class="i">diff_emitted</text><path class="f" d="M58.116 0h38v2.171h-38z"/><text x="58.116" y="1.67" class="h">│</text><path class="f" d="M96.192 0h4v2.171h-4z"/><text x="96.192" y="1.67" class="g"></text></symbol><symbol id="32"><path class="f" d="M0 0h41v2.171H0z"/><text y="1.67" class="g"></text><path class="f" d="M41.082 0h2v2.171h-2z"/><text x="41.082" y="1.67" class="h">│</text><path class="f" d="M43.086 0h9v2.171h-9z"/><text x="43.086" y="1.67" class="j">cells=3</text><path class="f" d="M52.104 0h44v2.171h-44z"/><text x="52.104" y="1.67" class="h">│</text><path class="f" d="M96.192 0h4v2.171h-4z"/><text x="96.192" y="1.67" class="g"></text></symbol><symbol id="33"><path class="f" d="M0 0h2v2.171H0z"/><text y="1.67" class="g"></text><path class="f" d="M2.004 0h36v2.171h-36z"/><text x="2.004" y="1.67" class="l">┌ ET-Transport ────────────────────┐</text><path class="f" d="M38.076 0h3v2.171h-3z"/><text x="38.076" y="1.67" class="g"></text><path class="f" d="M41.082 0h2v2.171h-2z"/><text x="41.082" y="1.67" class="h">│</text><path class="f" d="M43.086 0h20v2.171h-20z"/><text x="43.086" y="1.67" class="j">2026-04-19T10:00:02</text><path class="f" d="M63.126 0h33v2.171h-33z"/><text x="63.126" y="1.67" class="h">│</text><path class="f" d="M96.192 0h4v2.171h-4z"/><text x="96.192" y="1.67" class="g"></text></symbol><symbol id="34"><path class="f" d="M0 0h2v2.171H0z"/><text y="1.67" class="g"></text><path class="f" d="M2.004 0h36v2.171h-36z"/><text x="2.004" y="1.67" class="l">│ │</text><path class="f" d="M38.076 0h3v2.171h-3z"/><text x="38.076" y="1.67" class="g"></text><path class="f" d="M41.082 0h2v2.171h-2z"/><text x="41.082" y="1.67" class="h">│</text><path class="f" d="M43.086 0h15v2.171h-15z"/><text x="43.086" y="1.67" class="i">input_received</text><path class="f" d="M58.116 0h38v2.171h-38z"/><text x="58.116" y="1.67" class="h">│</text><path class="f" d="M96.192 0h4v2.171h-4z"/><text x="96.192" y="1.67" class="g"></text></symbol><symbol id="35"><path class="f" d="M0 0h2v2.171H0z"/><text y="1.67" class="g"></text><path class="f" d="M2.004 0h4v2.171h-4z"/><text x="2.004" y="1.67" class="l">│ ●</text><path class="f" d="M6.012 0h13v2.171h-13z"/><text x="6.012" y="1.67" class="m">Unix socket</text><path class="f" d="M19.038 0h9v2.171h-9z"/><text x="19.038" y="1.67" class="j">9.2µs p50</text><path class="f" d="M28.056 0h10v2.171h-10z"/><text x="28.056" y="1.67" class="l">│</text><path class="f" d="M38.076 0h3v2.171h-3z"/><text x="38.076" y="1.67" class="g"></text><path class="f" d="M41.082 0h2v2.171h-2z"/><text x="41.082" y="1.67" class="h">│</text><path class="f" d="M43.086 0h9v2.171h-9z"/><text x="43.086" y="1.67" class="j">key=&apos;+&apos;</text><path class="f" d="M52.104 0h44v2.171h-44z"/><text x="52.104" y="1.67" class="h">│</text><path class="f" d="M96.192 0h4v2.171h-4z"/><text x="96.192" y="1.67" class="g"></text></symbol><symbol id="36"><path class="f" d="M0 0h2v2.171H0z"/><text y="1.67" class="g"></text><path class="f" d="M2.004 0h2v2.171h-2z"/><text x="2.004" y="1.67" class="l">│</text><path class="f" d="M4.008 0h2v2.171h-2z"/><text x="4.008" y="1.67" class="i">●</text><path class="f" d="M6.012 0h13v2.171h-13z"/><text x="6.012" y="1.67" class="m">TCP+TLS</text><path class="f" d="M19.038 0h10v2.171h-10z"/><text x="19.038" y="1.67" class="j">13.3µs p50</text><path class="f" d="M29.058 0h9v2.171h-9z"/><text x="29.058" y="1.67" class="l">│</text><path class="f" d="M38.076 0h3v2.171h-3z"/><text x="38.076" y="1.67" class="g"></text><path class="f" d="M41.082 0h2v2.171h-2z"/><text x="41.082" y="1.67" class="h">│</text><path class="f" d="M43.086 0h20v2.171h-20z"/><text x="43.086" y="1.67" class="j">2026-04-19T10:00:02</text><path class="f" d="M63.126 0h33v2.171h-33z"/><text x="63.126" y="1.67" class="h">│</text><path class="f" d="M96.192 0h4v2.171h-4z"/><text x="96.192" y="1.67" class="g"></text></symbol><symbol id="37"><path class="f" d="M0 0h2v2.171H0z"/><text y="1.67" class="g"></text><path class="f" d="M2.004 0h2v2.171h-2z"/><text x="2.004" y="1.67" class="l">│</text><path class="f" d="M4.008 0h2v2.171h-2z"/><text x="4.008" y="1.67" class="h">●</text><path class="f" d="M6.012 0h13v2.171h-13z"/><text x="6.012" y="1.67" class="m">FRANK</text><path class="f" d="M19.038 0h22v2.171h-22z"/><text x="19.038" y="1.67" class="l">agent attached :observ</text><path class="f" d="M41.082 0h2v2.171h-2z"/><text x="41.082" y="1.67" class="h">│</text><path class="f" d="M43.086 0h15v2.171h-15z"/><text x="43.086" y="1.67" class="i">diff_emitted</text><path class="f" d="M58.116 0h38v2.171h-38z"/><text x="58.116" y="1.67" class="h">│</text><path class="f" d="M96.192 0h4v2.171h-4z"/><text x="96.192" y="1.67" class="g"></text></symbol><symbol id="38"><path class="f" d="M0 0h2v2.171H0z"/><text y="1.67" class="g"></text><path class="f" d="M2.004 0h36v2.171h-36z"/><text x="2.004" y="1.67" class="l">│ │</text><path class="f" d="M38.076 0h3v2.171h-3z"/><text x="38.076" y="1.67" class="g"></text><path class="f" d="M41.082 0h2v2.171h-2z"/><text x="41.082" y="1.67" class="h">│</text><path class="f" d="M43.086 0h9v2.171h-9z"/><text x="43.086" y="1.67" class="j">cells=3</text><path class="f" d="M52.104 0h44v2.171h-44z"/><text x="52.104" y="1.67" class="h">│</text><path class="f" d="M96.192 0h4v2.171h-4z"/><text x="96.192" y="1.67" class="g"></text></symbol><symbol id="39"><path class="f" d="M0 0h2v2.171H0z"/><text y="1.67" class="g"></text><path class="f" d="M2.004 0h36v2.171h-36z"/><text x="2.004" y="1.67" class="l">│ │</text><path class="f" d="M38.076 0h3v2.171h-3z"/><text x="38.076" y="1.67" class="g"></text><path class="f" d="M41.082 0h55v2.171h-55z"/><text x="41.082" y="1.67" class="h">│ │</text><path class="f" d="M96.192 0h4v2.171h-4z"/><text x="96.192" y="1.67" class="g"></text></symbol><symbol id="40"><path class="f" d="M0 0h2v2.171H0z"/><text y="1.67" class="g"></text><path class="f" d="M2.004 0h36v2.171h-36z"/><text x="2.004" y="1.67" class="l">└──────────────────────────────────┘</text><path class="f" d="M38.076 0h3v2.171h-3z"/><text x="38.076" y="1.67" class="g"></text><path class="f" d="M41.082 0h55v2.171h-55z"/><text x="41.082" y="1.67" class="h">│ │</text><path class="f" d="M96.192 0h4v2.171h-4z"/><text x="96.192" y="1.67" class="g"></text></symbol><symbol id="41"><path class="f" d="M0 0h41v2.171H0z"/><text y="1.67" class="g"></text><path class="f" d="M41.082 0h55v2.171h-55z"/><text x="41.082" y="1.67" class="h">└─────────────────────────────────────────────────────┘</text><path class="f" d="M96.192 0h4v2.171h-4z"/><text x="96.192" y="1.67" class="g"></text></symbol><symbol id="a"><path fill="transparent" d="M0 0h100v31H0z"/></symbol></defs><path class="a" d="M0 0h100v65.13H0z"/><g style="animation-duration:6.4s;animation-iteration-count:infinite;animation-name:r;animation-timing-function:steps(1,end)"><svg width="1000"><svg><use xlink:href="#a"/></svg><svg x="100"><use xlink:href="#a"/><use xlink:href="#1"/><use xlink:href="#2" y="2.171"/><use xlink:href="#3" y="4.342"/><path class="f" d="M0 6.513h2v2.171H0z"/><text y="8.183" class="g"></text><path class="f" d="M2.004 6.513h2v2.171h-2z"/><text x="2.004" y="8.183" class="h">│</text><path class="f" d="M4.008 6.513h8v2.171h-8z"/><text x="4.008" y="8.183" class="m">Count:</text><path class="f" d="M12.024 6.513h5v2.171h-5z"/><text x="12.024" y="8.183" class="p">0</text><path class="f" d="M17.034 6.513h21v2.171h-21z"/><text x="17.034" y="8.183" class="h">│</text><path class="f" d="M38.076 6.513h3v2.171h-3z"/><text x="38.076" y="8.183" class="g"></text><path class="f" d="M41.082 6.513h2v2.171h-2z"/><text x="41.082" y="8.183" class="i">│</text><path class="f" d="M43.086 6.513h32v2.171h-32z"/><text x="43.086" y="8.183" class="j">Block Paragraph List</text><path class="f" d="M75.15 6.513h21v2.171h-21z"/><text x="75.15" y="8.183" class="i">│</text><path class="f" d="M96.192 6.513h4v2.171h-4z"/><text x="96.192" y="8.183" class="g"></text><use xlink:href="#4" y="8.684"/><use xlink:href="#5" y="10.855"/><use xlink:href="#6" y="13.026"/><use xlink:href="#7" y="15.197"/><use xlink:href="#8" y="17.368"/><use xlink:href="#9" y="19.539"/><use xlink:href="#10" y="21.71"/><use xlink:href="#11" y="23.881"/><use xlink:href="#12" y="26.052"/><use xlink:href="#13" y="28.223"/><use xlink:href="#14" y="30.394"/><use xlink:href="#15" y="32.565"/><use xlink:href="#16" y="34.736"/><use xlink:href="#13" y="36.907"/><use xlink:href="#13" y="39.078"/><use xlink:href="#17" y="41.249"/><use xlink:href="#18" y="43.42"/><use xlink:href="#1" y="45.591"/><use xlink:href="#1" y="47.762"/><use xlink:href="#1" y="49.933"/><use xlink:href="#1" y="52.104"/><use xlink:href="#1" y="54.275"/><use xlink:href="#1" y="56.446"/><use xlink:href="#1" y="58.617"/><use xlink:href="#1" y="60.788"/><use xlink:href="#19" y="62.959"/><use xlink:href="#1" y="65.13"/></svg><svg x="200"><use xlink:href="#a"/><use xlink:href="#1"/><use xlink:href="#2" y="2.171"/><use xlink:href="#3" y="4.342"/><path class="f" d="M0 6.513h2v2.171H0z"/><text y="8.183" class="g"></text><path class="f" d="M2.004 6.513h2v2.171h-2z"/><text x="2.004" y="8.183" class="h">│</text><path class="f" d="M4.008 6.513h8v2.171h-8z"/><text x="4.008" y="8.183" class="m">Count:</text><path class="f" d="M12.024 6.513h5v2.171h-5z"/><text x="12.024" y="8.183" class="p">1</text><path class="f" d="M17.034 6.513h21v2.171h-21z"/><text x="17.034" y="8.183" class="h">│</text><path class="f" d="M38.076 6.513h3v2.171h-3z"/><text x="38.076" y="8.183" class="g"></text><path class="f" d="M41.082 6.513h2v2.171h-2z"/><text x="41.082" y="8.183" class="i">│</text><path class="f" d="M43.086 6.513h32v2.171h-32z"/><text x="43.086" y="8.183" class="j">Block Paragraph List</text><path class="f" d="M75.15 6.513h21v2.171h-21z"/><text x="75.15" y="8.183" class="i">│</text><path class="f" d="M96.192 6.513h4v2.171h-4z"/><text x="96.192" y="8.183" class="g"></text><use xlink:href="#4" y="8.684"/><use xlink:href="#5" y="10.855"/><use xlink:href="#6" y="13.026"/><use xlink:href="#7" y="15.197"/><use xlink:href="#8" y="17.368"/><use xlink:href="#9" y="19.539"/><use xlink:href="#10" y="21.71"/><use xlink:href="#11" y="23.881"/><use xlink:href="#12" y="26.052"/><use xlink:href="#13" y="28.223"/><use xlink:href="#14" y="30.394"/><use xlink:href="#15" y="32.565"/><use xlink:href="#16" y="34.736"/><use xlink:href="#13" y="36.907"/><use xlink:href="#13" y="39.078"/><use xlink:href="#17" y="41.249"/><use xlink:href="#18" y="43.42"/><use xlink:href="#1" y="45.591"/><use xlink:href="#1" y="47.762"/><use xlink:href="#1" y="49.933"/><use xlink:href="#1" y="52.104"/><use xlink:href="#1" y="54.275"/><use xlink:href="#1" y="56.446"/><use xlink:href="#1" y="58.617"/><use xlink:href="#1" y="60.788"/><use xlink:href="#19" y="62.959"/><use xlink:href="#1" y="65.13"/></svg><svg x="300"><use xlink:href="#a"/><use xlink:href="#1"/><use xlink:href="#2" y="2.171"/><use xlink:href="#3" y="4.342"/><path class="f" d="M0 6.513h2v2.171H0z"/><text y="8.183" class="g"></text><path class="f" d="M2.004 6.513h2v2.171h-2z"/><text x="2.004" y="8.183" class="h">│</text><path class="f" d="M4.008 6.513h8v2.171h-8z"/><text x="4.008" y="8.183" class="m">Count:</text><path class="f" d="M12.024 6.513h5v2.171h-5z"/><text x="12.024" y="8.183" class="p">2</text><path class="f" d="M17.034 6.513h21v2.171h-21z"/><text x="17.034" y="8.183" class="h">│</text><path class="f" d="M38.076 6.513h3v2.171h-3z"/><text x="38.076" y="8.183" class="g"></text><path class="f" d="M41.082 6.513h2v2.171h-2z"/><text x="41.082" y="8.183" class="i">│</text><path class="f" d="M43.086 6.513h32v2.171h-32z"/><text x="43.086" y="8.183" class="j">Block Paragraph List</text><path class="f" d="M75.15 6.513h21v2.171h-21z"/><text x="75.15" y="8.183" class="i">│</text><path class="f" d="M96.192 6.513h4v2.171h-4z"/><text x="96.192" y="8.183" class="g"></text><use xlink:href="#4" y="8.684"/><use xlink:href="#5" y="10.855"/><use xlink:href="#6" y="13.026"/><use xlink:href="#7" y="15.197"/><use xlink:href="#8" y="17.368"/><use xlink:href="#9" y="19.539"/><use xlink:href="#10" y="21.71"/><use xlink:href="#11" y="23.881"/><use xlink:href="#12" y="26.052"/><use xlink:href="#13" y="28.223"/><use xlink:href="#14" y="30.394"/><use xlink:href="#15" y="32.565"/><use xlink:href="#16" y="34.736"/><use xlink:href="#13" y="36.907"/><use xlink:href="#13" y="39.078"/><use xlink:href="#17" y="41.249"/><use xlink:href="#18" y="43.42"/><use xlink:href="#1" y="45.591"/><use xlink:href="#1" y="47.762"/><use xlink:href="#1" y="49.933"/><use xlink:href="#1" y="52.104"/><use xlink:href="#1" y="54.275"/><use xlink:href="#1" y="56.446"/><use xlink:href="#1" y="58.617"/><use xlink:href="#1" y="60.788"/><use xlink:href="#19" y="62.959"/><use xlink:href="#1" y="65.13"/></svg><svg x="400"><use xlink:href="#a"/><use xlink:href="#1"/><use xlink:href="#2" y="2.171"/><use xlink:href="#3" y="4.342"/><path class="f" d="M0 6.513h2v2.171H0z"/><text y="8.183" class="g"></text><path class="f" d="M2.004 6.513h2v2.171h-2z"/><text x="2.004" y="8.183" class="h">│</text><path class="f" d="M4.008 6.513h8v2.171h-8z"/><text x="4.008" y="8.183" class="m">Count:</text><path class="f" d="M12.024 6.513h5v2.171h-5z"/><text x="12.024" y="8.183" class="p">3</text><path class="f" d="M17.034 6.513h21v2.171h-21z"/><text x="17.034" y="8.183" class="h">│</text><path class="f" d="M38.076 6.513h3v2.171h-3z"/><text x="38.076" y="8.183" class="g"></text><path class="f" d="M41.082 6.513h2v2.171h-2z"/><text x="41.082" y="8.183" class="i">│</text><path class="f" d="M43.086 6.513h32v2.171h-32z"/><text x="43.086" y="8.183" class="j">Block Paragraph List</text><path class="f" d="M75.15 6.513h21v2.171h-21z"/><text x="75.15" y="8.183" class="i">│</text><path class="f" d="M96.192 6.513h4v2.171h-4z"/><text x="96.192" y="8.183" class="g"></text><use xlink:href="#4" y="8.684"/><use xlink:href="#5" y="10.855"/><use xlink:href="#6" y="13.026"/><use xlink:href="#7" y="15.197"/><use xlink:href="#8" y="17.368"/><use xlink:href="#9" y="19.539"/><use xlink:href="#10" y="21.71"/><use xlink:href="#11" y="23.881"/><use xlink:href="#12" y="26.052"/><use xlink:href="#13" y="28.223"/><use xlink:href="#14" y="30.394"/><use xlink:href="#15" y="32.565"/><use xlink:href="#16" y="34.736"/><use xlink:href="#13" y="36.907"/><use xlink:href="#13" y="39.078"/><use xlink:href="#17" y="41.249"/><use xlink:href="#18" y="43.42"/><use xlink:href="#1" y="45.591"/><use xlink:href="#1" y="47.762"/><use xlink:href="#1" y="49.933"/><use xlink:href="#1" y="52.104"/><use xlink:href="#1" y="54.275"/><use xlink:href="#1" y="56.446"/><use xlink:href="#1" y="58.617"/><use xlink:href="#1" y="60.788"/><use xlink:href="#19" y="62.959"/><use xlink:href="#1" y="65.13"/></svg><svg x="500"><use xlink:href="#a"/><use xlink:href="#1"/><use xlink:href="#2" y="2.171"/><use xlink:href="#3" y="4.342"/><path class="f" d="M0 6.513h2v2.171H0z"/><text y="8.183" class="g"></text><path class="f" d="M2.004 6.513h2v2.171h-2z"/><text x="2.004" y="8.183" class="h">│</text><path class="f" d="M4.008 6.513h8v2.171h-8z"/><text x="4.008" y="8.183" class="m">Count:</text><path class="f" d="M12.024 6.513h5v2.171h-5z"/><text x="12.024" y="8.183" class="p">4</text><path class="f" d="M17.034 6.513h21v2.171h-21z"/><text x="17.034" y="8.183" class="h">│</text><path class="f" d="M38.076 6.513h3v2.171h-3z"/><text x="38.076" y="8.183" class="g"></text><path class="f" d="M41.082 6.513h2v2.171h-2z"/><text x="41.082" y="8.183" class="i">│</text><path class="f" d="M43.086 6.513h32v2.171h-32z"/><text x="43.086" y="8.183" class="j">Block Paragraph List</text><path class="f" d="M75.15 6.513h21v2.171h-21z"/><text x="75.15" y="8.183" class="i">│</text><path class="f" d="M96.192 6.513h4v2.171h-4z"/><text x="96.192" y="8.183" class="g"></text><use xlink:href="#4" y="8.684"/><use xlink:href="#5" y="10.855"/><use xlink:href="#6" y="13.026"/><use xlink:href="#7" y="15.197"/><use xlink:href="#8" y="17.368"/><use xlink:href="#9" y="19.539"/><use xlink:href="#10" y="21.71"/><use xlink:href="#11" y="23.881"/><use xlink:href="#12" y="26.052"/><use xlink:href="#13" y="28.223"/><use xlink:href="#14" y="30.394"/><use xlink:href="#15" y="32.565"/><use xlink:href="#16" y="34.736"/><use xlink:href="#13" y="36.907"/><use xlink:href="#13" y="39.078"/><use xlink:href="#17" y="41.249"/><use xlink:href="#18" y="43.42"/><use xlink:href="#1" y="45.591"/><use xlink:href="#1" y="47.762"/><use xlink:href="#1" y="49.933"/><use xlink:href="#1" y="52.104"/><use xlink:href="#1" y="54.275"/><use xlink:href="#1" y="56.446"/><use xlink:href="#1" y="58.617"/><use xlink:href="#1" y="60.788"/><use xlink:href="#19" y="62.959"/><use xlink:href="#1" y="65.13"/></svg><svg x="600"><use xlink:href="#a"/><use xlink:href="#1"/><use xlink:href="#2" y="2.171"/><use xlink:href="#3" y="4.342"/><use xlink:href="#20" y="6.513"/><use xlink:href="#4" y="8.684"/><use xlink:href="#5" y="10.855"/><use xlink:href="#6" y="13.026"/><use xlink:href="#7" y="15.197"/><use xlink:href="#8" y="17.368"/><use xlink:href="#9" y="19.539"/><use xlink:href="#10" y="21.71"/><use xlink:href="#11" y="23.881"/><use xlink:href="#12" y="26.052"/><use xlink:href="#13" y="28.223"/><use xlink:href="#14" y="30.394"/><use xlink:href="#15" y="32.565"/><use xlink:href="#16" y="34.736"/><use xlink:href="#13" y="36.907"/><use xlink:href="#13" y="39.078"/><use xlink:href="#17" y="41.249"/><use xlink:href="#18" y="43.42"/><use xlink:href="#1" y="45.591"/><use xlink:href="#1" y="47.762"/><use xlink:href="#1" y="49.933"/><use xlink:href="#1" y="52.104"/><use xlink:href="#1" y="54.275"/><use xlink:href="#1" y="56.446"/><use xlink:href="#1" y="58.617"/><use xlink:href="#1" y="60.788"/><use xlink:href="#19" y="62.959"/><use xlink:href="#1" y="65.13"/></svg><svg x="700"><use xlink:href="#a"/><use xlink:href="#1"/><use xlink:href="#2" y="2.171"/><use xlink:href="#3" y="4.342"/><use xlink:href="#20" y="6.513"/><use xlink:href="#4" y="8.684"/><use xlink:href="#5" y="10.855"/><use xlink:href="#6" y="13.026"/><use xlink:href="#7" y="15.197"/><use xlink:href="#8" y="17.368"/><use xlink:href="#9" y="19.539"/><use xlink:href="#10" y="21.71"/><use xlink:href="#11" y="23.881"/><use xlink:href="#12" y="26.052"/><use xlink:href="#13" y="28.223"/><use xlink:href="#14" y="30.394"/><use xlink:href="#15" y="32.565"/><path class="f" d="M0 34.736h2v2.171H0z"/><text y="36.406" class="g"></text><path class="f" d="M2.004 34.736h2v2.171h-2z"/><text x="2.004" y="36.406" class="l">│</text><path class="f" d="M4.008 34.736h2v2.171h-2z"/><text x="4.008" y="36.406" class="h">●</text><path class="f" d="M6.012 34.736h13v2.171h-13z"/><text x="6.012" y="36.406" class="m">FRANK</text><path class="f" d="M19.038 34.736h23v2.171h-23z"/><text x="19.038" y="36.406" class="l">agent attached :observe</text><path class="f" d="M42.084 34.736h54v2.171h-54z"/><text x="42.084" y="36.406" class="i">│</text><path class="f" d="M96.192 34.736h4v2.171h-4z"/><text x="96.192" y="36.406" class="g"></text><use xlink:href="#13" y="36.907"/><use xlink:href="#13" y="39.078"/><use xlink:href="#17" y="41.249"/><use xlink:href="#18" y="43.42"/><use xlink:href="#1" y="45.591"/><use xlink:href="#1" y="47.762"/><use xlink:href="#1" y="49.933"/><use xlink:href="#1" y="52.104"/><use xlink:href="#1" y="54.275"/><use xlink:href="#1" y="56.446"/><use xlink:href="#1" y="58.617"/><use xlink:href="#1" y="60.788"/><use xlink:href="#21" y="62.959"/><use xlink:href="#1" y="65.13"/></svg><svg x="800"><use xlink:href="#a"/><use xlink:href="#1"/><use xlink:href="#22" y="2.171"/><use xlink:href="#23" y="4.342"/><use xlink:href="#24" y="6.513"/><use xlink:href="#25" y="8.684"/><use xlink:href="#26" y="10.855"/><use xlink:href="#27" y="13.026"/><use xlink:href="#28" y="15.197"/><use xlink:href="#29" y="17.368"/><use xlink:href="#30" y="19.539"/><use xlink:href="#31" y="21.71"/><use xlink:href="#32" y="23.881"/><use xlink:href="#33" y="26.052"/><use xlink:href="#34" y="28.223"/><use xlink:href="#35" y="30.394"/><use xlink:href="#36" y="32.565"/><use xlink:href="#37" y="34.736"/><use xlink:href="#38" y="36.907"/><use xlink:href="#39" y="39.078"/><use xlink:href="#40" y="41.249"/><use xlink:href="#41" y="43.42"/><use xlink:href="#1" y="45.591"/><use xlink:href="#1" y="47.762"/><use xlink:href="#1" y="49.933"/><use xlink:href="#1" y="52.104"/><use xlink:href="#1" y="54.275"/><use xlink:href="#1" y="56.446"/><use xlink:href="#1" y="58.617"/><use xlink:href="#1" y="60.788"/><use xlink:href="#21" y="62.959"/><use xlink:href="#1" y="65.13"/></svg><svg x="900"><use xlink:href="#a"/><use xlink:href="#1"/><use xlink:href="#22" y="2.171"/><use xlink:href="#23" y="4.342"/><use xlink:href="#24" y="6.513"/><use xlink:href="#25" y="8.684"/><use xlink:href="#26" y="10.855"/><use xlink:href="#27" y="13.026"/><use xlink:href="#28" y="15.197"/><use xlink:href="#29" y="17.368"/><use xlink:href="#30" y="19.539"/><use xlink:href="#31" y="21.71"/><use xlink:href="#32" y="23.881"/><use xlink:href="#33" y="26.052"/><use xlink:href="#34" y="28.223"/><use xlink:href="#35" y="30.394"/><use xlink:href="#36" y="32.565"/><use xlink:href="#37" y="34.736"/><use xlink:href="#38" y="36.907"/><use xlink:href="#39" y="39.078"/><use xlink:href="#40" y="41.249"/><use xlink:href="#41" y="43.42"/><use xlink:href="#1" y="45.591"/><use xlink:href="#1" y="47.762"/><use xlink:href="#1" y="49.933"/><use xlink:href="#1" y="52.104"/><use xlink:href="#1" y="54.275"/><use xlink:href="#1" y="56.446"/><use xlink:href="#1" y="58.617"/><use xlink:href="#1" y="60.788"/><use xlink:href="#21" y="62.959"/><use xlink:href="#1" y="65.13"/></svg></svg></g></g></svg></svg>